<svg id="Layer_1" data-name="Layer 1" xmlns="http://www.w3.org/2000/svg" viewBox="0 0 254.5 221.28"><defs><style>.cls-1{fill:none;stroke:#4d4e4e;stroke-linecap:round;stroke-linejoin:round;stroke-width:15.71px;}.cls-2{fill:#e6e6e5;}.cls-2,.cls-3,.cls-4{stroke:#fff;stroke-miterlimit:10;stroke-width:5.24px;}.cls-3{fill:#4d4e4e;}.cls-4{fill:#837164;}</style></defs><polyline class="cls-1" points="170.85 52.66 206.6 52.66 206.6 112.38"/><path class="cls-2" d="M184.93,219.42H69.56a27.66,27.66,0,0,1-27-33.83L64,92.18a27.66,27.66,0,0,1,27-21.49h71a27.65,27.65,0,0,1,26.85,21l23,93.41A27.66,27.66,0,0,1,184.93,219.42Z"/><path class="cls-3" d="M182.17,34.63H61.85a4.58,4.58,0,0,0-4.58,4.58l10.47,26.9a4.58,4.58,0,0,0,4.58,4.58H182.17a4.59,4.59,0,0,0,4.59-4.58V39.21A4.59,4.59,0,0,0,182.17,34.63Z"/><path class="cls-4" d="M196.76,124.13H56.66L42.6,185.59a27.65,27.65,0,0,0,27,33.83H184.93a27.66,27.66,0,0,0,26.86-34.28Z"/><polyline class="cls-1" points="170.85 52.66 206.6 52.66 206.6 112.38"/><path class="cls-2" d="M184.93,219.42H69.56a27.66,27.66,0,0,1-27-33.83L64,92.18a27.66,27.66,0,0,1,27-21.49h71a27.65,27.65,0,0,1,26.85,21l23,93.41A27.66,27.66,0,0,1,184.93,219.42Z"/><path class="cls-3" d="M182.17,34.63H61.85a4.58,4.58,0,0,0-4.58,4.58l10.47,26.9a4.58,4.58,0,0,0,4.58,4.58H182.17a4.59,4.59,0,0,0,4.59-4.58V39.21A4.59,4.59,0,0,0,182.17,34.63Z"/><path class="cls-4" d="M196.76,124.13H56.66L42.6,185.59a27.65,27.65,0,0,0,27,33.83H184.93a27.66,27.66,0,0,0,26.86-34.28Z"/></svg>