<svg id="Layer_1" data-name="Layer 1" xmlns="http://www.w3.org/2000/svg" viewBox="0 0 254.5 221.28"><defs><style>.cls-1{fill:#544741;}.cls-2{fill:#837164;}.cls-3{fill:#758580;}</style></defs><path class="cls-1" d="M140.84,155.58a84.21,84.21,0,0,0-2.77-11.36l-3.37-10.64c-2.2-7-4.34-13.93-6.08-20.91-.17-.65-.51-1.65-.67-2.3-3.53,0-4.73,0-7.94-.15.14,1.17-1.69,2.67-1.52,3.83,1.09,7.31,2.61,14.55,4.13,21.69.73,3.56,1.48,7.12,2,10.61a68.91,68.91,0,0,1,1,10.12,22,22,0,0,1,0,2.31l-.07,1.12c0,.37-.12.68-.15,1l-.15,1-.24,1.28-.49,2.6c-.65,3.49-1.25,7.07-1.74,10.64-1,7.17-1.78,14.39-2.25,21.66s1.09,13.83,1.69,21.28l1.34.07c3.75-6.8,5.1-12.8,7.72-19.77s4.83-14,6.74-21.13c.94-3.56,1.78-7.13,2.42-10.79.18-.91.31-1.83.45-2.78l.2-1.41c0-.51.09-1.11.13-1.66a21.08,21.08,0,0,0,0-3.28A30.72,30.72,0,0,0,140.84,155.58Z"/><path class="cls-2" d="M128.6,110.36H128c.26,1.34.53,2.69.83,4.06,1.4,6.82,3.13,13.58,4.91,20.43s3.89,13.68,4.95,21.51a37.13,37.13,0,0,1,.25,6.23l-.12,1.62-.16,1.38c-.1.93-.2,1.83-.35,2.72-.52,3.58-1.22,7.06-1.95,10.54-1.53,7-3.37,13.83-5.46,20.65a164.21,164.21,0,0,1-7.36,20c.86,0,1.7.13,2.57.13h2.38a48.28,48.28,0,0,0,48.13-48.14l-2-67.37A182.43,182.43,0,0,1,128.6,110.36Z"/><path class="cls-2" d="M122.22,198q.57-10.66,1.79-21.17c.43-3.49.88-7,1.41-10.41l.4-2.54.2-1.24.11-1a28.89,28.89,0,0,0,.2-4.37c-.07-6.28-1.19-13.32-2.39-20.26-1.5-8.76-3.13-17.67-3.93-26.75a182.86,182.86,0,0,1-20.12-1.92v30.07l7.37,14.7h-19l6.16-12.28V107.38Q87,106,79.59,104l-1.66,67.46a48.27,48.27,0,0,0,44.22,47.94A180.47,180.47,0,0,1,122.22,198Z"/><path class="cls-3" d="M127.25,94.89l-1.32-.46-6.13-2.1L99.89,85.48v17.3a178.21,178.21,0,0,0,19.75,2q3.66.17,7.35.18c.52,0,1,0,1.57,0a177.6,177.6,0,0,0,45.76-6.37c1.8-.5,3.6-1,5.39-1.56V76.85l-9.52,3.27Z"/><path class="cls-3" d="M94.47,101.87V83.62l-9.59-3.3L74.79,76.85V97c1.68.52,3.38,1,5.07,1.46C84.69,99.81,89.56,101,94.47,101.87Z"/><polygon class="cls-3" points="127.25 37.4 51.98 63.27 69.36 69.25 72.07 70.18 74.79 71.11 87.45 75.47 94.47 77.88 94.47 70.62 104.67 65.99 110.64 63.27 116.6 60.56 121.65 58.27 122.69 60.56 123.89 63.2 123.75 63.27 117.78 65.99 99.89 74.11 99.89 79.74 120.31 86.76 125.74 88.63 127.25 89.15 167.75 75.22 179.71 71.11 182.43 70.18 185.14 69.25 202.52 63.27 127.25 37.4"/></svg>