<svg id="Layer_1" data-name="Layer 1" xmlns="http://www.w3.org/2000/svg" viewBox="0 0 254.5 221.28"><defs><style>.cls-1{fill:#fff;}.cls-2{fill:none;}.cls-3{fill:#837164;}.cls-4{fill:#758580;}.cls-5{fill:#544741;}</style></defs><rect class="cls-1" width="254.5" height="221.28"/><path class="cls-2" d="M131.67,219.46l-.66,0h0Z"/><path class="cls-3" d="M174.91,104q-7.38,2-14.88,3.35v33.41l6.16,12.28h-19l7.37-14.7V108.3a182.92,182.92,0,0,1-20.11,1.92c-3.21.15-4.42.19-7.94.15h-.65A182.51,182.51,0,0,1,80,104.12l-2,67.37a48.28,48.28,0,0,0,48.13,48.14h2.37c.87,0,1.72-.09,2.58-.13l.66,0c.23,0,.45,0,.67,0h0a48.27,48.27,0,0,0,44.23-47.94Z"/><path class="cls-4" d="M132.34,219.43v.08l-1.23.23a2.44,2.44,0,0,1-.1-.24l.66,0Z"/><path class="cls-4" d="M132.34,219.43h0l-.67,0C131.9,219.45,132.12,219.45,132.34,219.43Z"/><path class="cls-4" d="M127.25,94.89l1.31-.46,6.14-2.1,19.9-6.85v17.3a178,178,0,0,1-19.74,2q-3.66.17-7.35.18l-1.57,0a177.74,177.74,0,0,1-45.77-6.37c-1.8-.5-3.6-1-5.38-1.56V76.85l9.52,3.27Z"/><path class="cls-4" d="M160,101.87V83.62l9.59-3.3,10.09-3.47V97c-1.68.52-3.38,1-5.07,1.46C169.81,99.81,164.94,101,160,101.87Z"/><polygon class="cls-4" points="127.25 37.4 202.52 63.27 185.14 69.25 182.42 70.18 179.71 71.11 167.04 75.47 160.03 77.88 160.03 70.62 149.83 65.99 143.86 63.27 137.9 60.56 132.85 58.27 131.8 60.56 130.6 63.2 130.75 63.27 136.72 65.99 154.6 74.11 154.6 79.74 134.19 86.76 128.76 88.63 127.25 89.15 86.75 75.22 74.79 71.11 72.07 70.18 69.36 69.25 51.98 63.27 127.25 37.4"/><path class="cls-5" d="M126.33,157.23a28.89,28.89,0,0,1-.2,4.37l-.11,1-.2,1.24-.4,2.54c-.53,3.42-1,6.92-1.41,10.41q-1.23,10.5-1.79,21.17a180.47,180.47,0,0,0-.07,21.45l.67,0,.67,0a164.21,164.21,0,0,0,7.36-20c2.09-6.82,3.93-13.69,5.45-20.65.74-3.48,1.44-7,2-10.54.15-.89.25-1.79.35-2.72l.16-1.38.12-1.62a37.13,37.13,0,0,0-.25-6.23c-1.06-7.83-3.24-14.61-4.95-21.51s-3.51-13.61-4.91-20.43c-.3-1.37-.57-2.72-.83-4.06-3.53,0-4.73,0-7.94-.15.8,9.08,2.43,18,3.93,26.75C125.14,143.91,126.26,151,126.33,157.23Z"/></svg>