<svg id="Layer_1" data-name="Layer 1" xmlns="http://www.w3.org/2000/svg" viewBox="0 0 254.5 221.28"><defs><style>.cls-1{fill:#837164;}.cls-2{fill:#544741;}.cls-3,.cls-4{fill:#e6e6e5;stroke:#fff;stroke-miterlimit:10;}.cls-3{stroke-width:5.55px;}.cls-4{stroke-width:3.42px;}.cls-5{fill:#efb2c5;}</style></defs><path class="cls-1" d="M128.46,220.31H126a49.4,49.4,0,0,1-49.25-49.25l1.71-69.44C78.49,74.53,99,48.83,126,48.83h2.43c27.09,0,47,22.62,47,49.71l2.2,72.52A49.39,49.39,0,0,1,128.46,220.31Z"/><path class="cls-2" d="M129.08,49c-.66,3.54-1.2,7.12-1.64,10.69s-.86,7.15-1.11,10.73a162.56,162.56,0,0,0-.46,21.37,100.3,100.3,0,0,0,1,10.47l.39,2.57c.14.86.33,1.74.5,2.61.32,1.75.69,3.5,1.07,5.24,1.43,7,3.2,13.9,5,20.91l2.78,10.64a97.1,97.1,0,0,1,2.28,11.36c.1,1,.24,2,.25,3.1a25.58,25.58,0,0,1,0,3.28c0,.55-.06,1.15-.11,1.66l-.16,1.41c-.11.95-.23,1.87-.37,2.78-.54,3.66-1.23,7.23-2,10.79q-2.37,10.67-5.56,21.13a173.77,173.77,0,0,1-7.66,20.69l-1.26-.23a188.37,188.37,0,0,1,0-22c.39-7.27,1-14.49,1.85-21.66.41-3.57.91-7.15,1.44-10.64l.4-2.6L126,162l.12-1c0-.35.11-.66.12-1l.06-1.12a22.1,22.1,0,0,0,0-2.31,82.5,82.5,0,0,0-.78-10.12c-.43-3.49-1-7-1.66-10.61-1.26-7.14-2.51-14.38-3.41-21.69-.22-1.83-.42-3.66-.58-5.49-.08-.93-.19-1.82-.25-2.77l-.16-2.83a110.26,110.26,0,0,1,0-11.21,159.06,159.06,0,0,1,2.88-21.89,181.68,181.68,0,0,1,5.48-21.2Z"/><path class="cls-3" d="M82.68,137.82h89.13a14.34,14.34,0,0,1,14.34,14.34v7.47a40,40,0,0,1-40,40H108.36a40,40,0,0,1-40-40v-7.47a14.34,14.34,0,0,1,14.34-14.34Z"/><path class="cls-4" d="M74,137.82H89.32a11.86,11.86,0,0,1,11.86,11.86v0a11.86,11.86,0,0,1-11.86,11.86h-21a0,0,0,0,1,0,0v-18A5.69,5.69,0,0,1,74,137.82Z"/><path class="cls-4" d="M153.32,137.82h21a11.86,11.86,0,0,1,11.86,11.86v0a11.86,11.86,0,0,1-11.86,11.86H159a5.69,5.69,0,0,1-5.69-5.69v-18a0,0,0,0,1,0,0Z" transform="translate(339.47 299.38) rotate(180)"/><path class="cls-5" d="M67.13,50.16a7.09,7.09,0,1,0-12.6,6.51,7.1,7.1,0,0,0-12.61,6.51c4,7.76,22,11.76,22,11.76S71.14,57.92,67.13,50.16Z"/></svg>