<svg id="Layer_1" data-name="Layer 1" xmlns="http://www.w3.org/2000/svg" viewBox="0 0 254.5 221.28"><defs><style>.cls-1{fill:#924a3b;}.cls-2{fill:#e0dbc5;}</style></defs><path class="cls-1" d="M59.47,108H66.7v10.85H59.52A25.41,25.41,0,0,0,34.11,144.3h0a25.41,25.41,0,0,0,25.41,25.41H69c.07.29.14.59.21.87a75.71,75.71,0,0,0,3.4,10H59.47A36.27,36.27,0,0,1,23.21,144.3h0A36.27,36.27,0,0,1,59.47,108Z"/><path class="cls-1" d="M231.28,151.31a69,69,0,0,1-69,69H142.53a69,69,0,0,1-63.11-41.11,68.25,68.25,0,0,1-3.61-10.32,69.06,69.06,0,0,1-2.26-17.54V99.74H231.28Z"/><path class="cls-2" d="M108,88.71s-.63-4.79,7.87-7.89-1.65-1-2.12-4.52,5-4.73,12.28-7.8-2.37-2.83,3.07-7.55,26.21-5.43,23.85-10.16-13-7.32-13-7.32a23.18,23.18,0,0,1,15.82,0c8.09,2.8,20.84,10.34,17.48,12.83-3,2.22-1.66,3.7,1.18,4.41s15.49,3.91,15.35,7.09c-.18,4-9.25,4.59.21,9.44,3.28,1.69,9.72,7.05,5.46,12.62H108Z"/></svg>