<svg id="Layer_1" data-name="Layer 1" xmlns="http://www.w3.org/2000/svg" viewBox="0 0 254.5 221.28"><defs><style>.cls-1{fill:#924a3b;}.cls-2{fill:#e0dbc5;}</style></defs><path class="cls-1" d="M59.47,108H66.7v10.85H59.52A25.41,25.41,0,0,0,34.11,144.3h0a25.41,25.41,0,0,0,25.41,25.41H69c.07.29.14.59.21.87a75.71,75.71,0,0,0,3.4,10H59.47A36.27,36.27,0,0,1,23.21,144.3h0A36.27,36.27,0,0,1,59.47,108Z"/><path class="cls-1" d="M231.28,151.31a69,69,0,0,1-69,69H142.53a69,69,0,0,1-63.11-41.11,68.25,68.25,0,0,1-3.61-10.32,69.06,69.06,0,0,1-2.26-17.54V99.74H231.28Z"/><path class="cls-2" d="M87,88.17s-.93-7,11.59-11.62-2.44-1.43-3.13-6.65,7.3-7,18.07-11.47-3.47-4.17,4.52-11.12,38.58-8,35.1-14.94S134,21.59,134,21.59s10.22-4.52,23.28,0C169.22,25.71,188,36.81,183,40.47c-4.43,3.28-2.43,5.45,1.74,6.49s22.8,5.76,22.59,10.43c-.27,6-13.6,6.76.31,13.9,4.83,2.48,14.31,10.37,8,18.57H87Z"/></svg>