<svg id="Layer_1" data-name="Layer 1" xmlns="http://www.w3.org/2000/svg" viewBox="0 0 254.5 221.28"><defs><style>.cls-1{fill:#924a3b;}.cls-2{fill:#fff;}.cls-3,.cls-7{fill:#544741;}.cls-3{stroke:#fff;stroke-miterlimit:10;stroke-width:5.61px;}.cls-4{fill:none;}.cls-5{fill:#efb2c5;}.cls-6{fill:#988575;}</style></defs><path class="cls-1" d="M218.06,108.48H210.8v10.89H218a25.55,25.55,0,0,1,0,51.09h-9.49l-.21.87a75.93,75.93,0,0,1-3.41,10h13.16a36.44,36.44,0,0,0,0-72.88Z"/><path class="cls-1" d="M45.38,152a69.4,69.4,0,0,0,69.32,69.32h19.89A69.39,69.39,0,0,0,198,180a67.46,67.46,0,0,0,3.63-10.37A69.7,69.7,0,0,0,203.9,152V100.13H45.38Z"/><rect class="cls-2" x="45.38" y="93.51" width="158.52" height="6.62"/><path class="cls-3" d="M174.41,53.52,166,30.15a29.94,29.94,0,0,0-28.16-19.77H115.48A29.94,29.94,0,0,0,87.32,30.15L78.87,53.52a24.6,24.6,0,0,0,8.6,28.21h0a7.87,7.87,0,0,1,2.41,3.09,22.47,22.47,0,0,0,20.35,12.94h32.83a22.44,22.44,0,0,0,20.34-13,7.94,7.94,0,0,1,2.42-3.08h0A24.61,24.61,0,0,0,174.41,53.52ZM145.85,71.76a14.32,14.32,0,0,1-5.1,10.82,16.53,16.53,0,0,1-11,4h-5.66a16.56,16.56,0,0,1-11-4,14.36,14.36,0,0,1-5.11-10.83V70.07a14.36,14.36,0,0,1,5.11-10.83,16.56,16.56,0,0,1,11-4h5.66a16.58,16.58,0,0,1,11,4,14.36,14.36,0,0,1,5.1,10.83v1.69Z"/><path d="M116.87,78.5a10.94,10.94,0,0,0,7.26,2.6h5.66A10.89,10.89,0,0,0,137,78.5a8.8,8.8,0,0,0,3.2-6.6V71H113.68v.92A8.79,8.79,0,0,0,116.87,78.5Z"/><path d="M140.24,71v-.91a8.82,8.82,0,0,0-3.2-6.61,10.94,10.94,0,0,0-7.25-2.6h-5.66a11,11,0,0,0-7.26,2.6,8.79,8.79,0,0,0-3.19,6.61V71h26.56Z"/><path class="cls-4" d="M109,30.58a5,5,0,1,0,5,5.05A5,5,0,0,0,109,30.58Z"/><path class="cls-4" d="M145.12,30.58a5,5,0,1,0,5,5.05A5,5,0,0,0,145.12,30.58Z"/><path d="M109,44.13a8.5,8.5,0,1,1,8.5-8.5A8.51,8.51,0,0,1,109,44.13Z"/><path class="cls-2" d="M109,30.58a5,5,0,1,1-5,5.05,5,5,0,0,1,5-5.05m0-6.89a11.94,11.94,0,1,0,11.94,11.94A12,12,0,0,0,109,23.69Z"/><path d="M145.12,44.13a8.5,8.5,0,1,1,8.49-8.5A8.51,8.51,0,0,1,145.12,44.13Z"/><path class="cls-2" d="M145.12,30.58a5,5,0,1,1-5.05,5.05,5.06,5.06,0,0,1,5.05-5.05m0-6.89a11.94,11.94,0,1,0,11.94,11.94,12,12,0,0,0-11.94-11.94Z"/><path class="cls-5" d="M127,111.11c-7.22,0-12.88-4.27-12.88-9.72V85.11h25.75v16.28C139.83,106.84,134.17,111.11,127,111.11Z"/><path class="cls-2" d="M137,88v13.42c0,3.79-4.49,6.87-10,6.87s-10-3.08-10-6.87V88h20m5.7-5.71H111.23v19.13c0,7,6.91,12.57,15.73,12.57s15.72-5.52,15.72-12.57V82.26Z"/><path class="cls-6" d="M188.83,67.45v1a28.77,28.77,0,0,0,9.23-10.16c2.67-4.82,5-12.3,1.07-20.57-6-12.67-27.24-19.11-38.11-21.64l1.38,3.37a53.1,53.1,0,0,1,9.09,7.16A57.17,57.17,0,0,1,188.83,67.45Z"/><path class="cls-7" d="M187,69.25a5.19,5.19,0,0,0,1.79-.8v-1a57.17,57.17,0,0,0-17.34-40.84,53.1,53.1,0,0,0-9.09-7.16c4.45,10.88,11.4,28,14.13,35.05C180.33,64.42,183.77,69.25,187,69.25Z"/><path class="cls-6" d="M64.75,67.45v1a28.76,28.76,0,0,1-9.22-10.16c-2.67-4.82-5-12.3-1.08-20.57,6-12.67,27.25-19.11,38.11-21.64l-1.38,3.37a53.1,53.1,0,0,0-9.09,7.16A57.21,57.21,0,0,0,64.75,67.45Z"/><path class="cls-7" d="M66.54,69.25a5.27,5.27,0,0,1-1.79-.8v-1A57.21,57.21,0,0,1,82.09,26.61a53.1,53.1,0,0,1,9.09-7.16c-4.45,10.88-11.4,28-14.12,35.05C73.25,64.42,69.81,69.25,66.54,69.25Z"/></svg>