<svg id="Layer_1" data-name="Layer 1" xmlns="http://www.w3.org/2000/svg" viewBox="0 0 254.5 221.28"><defs><style>.cls-1{fill:#fff;}.cls-2{fill:#924a3b;}.cls-3,.cls-7{fill:#544741;}.cls-3{stroke:#fff;stroke-miterlimit:10;stroke-width:5.61px;}.cls-4{fill:none;}.cls-5{fill:#efb2c5;}.cls-6{fill:#988575;}</style></defs><rect class="cls-1" width="254.5" height="221.28"/><path class="cls-2" d="M218.06,107.48H210.8v10.89H218a25.55,25.55,0,0,1,0,51.09h-9.49l-.21.87a75.93,75.93,0,0,1-3.41,10h13.16a36.44,36.44,0,0,0,0-72.88Z"/><path class="cls-2" d="M45.38,151a69.4,69.4,0,0,0,69.32,69.32h19.89A69.39,69.39,0,0,0,198,179a67.46,67.46,0,0,0,3.63-10.37A69.7,69.7,0,0,0,203.9,151V99.13H45.38Z"/><rect class="cls-1" x="45.38" y="92.51" width="158.52" height="6.62"/><path class="cls-3" d="M174.41,52.52,166,29.15A29.94,29.94,0,0,0,137.81,9.38H115.48A29.94,29.94,0,0,0,87.32,29.15L78.87,52.52a24.6,24.6,0,0,0,8.6,28.21h0a7.87,7.87,0,0,1,2.41,3.09,22.47,22.47,0,0,0,20.35,12.94h32.83a22.44,22.44,0,0,0,20.34-13,7.94,7.94,0,0,1,2.42-3.08h0A24.61,24.61,0,0,0,174.41,52.52ZM145.85,70.76a14.32,14.32,0,0,1-5.1,10.82,16.53,16.53,0,0,1-11,4h-5.66a16.56,16.56,0,0,1-11-4,14.36,14.36,0,0,1-5.11-10.83V69.07a14.36,14.36,0,0,1,5.11-10.83,16.56,16.56,0,0,1,11-4h5.66a16.58,16.58,0,0,1,11,4,14.36,14.36,0,0,1,5.1,10.83v1.69Z"/><path d="M116.87,77.5a10.94,10.94,0,0,0,7.26,2.6h5.66A10.89,10.89,0,0,0,137,77.5a8.8,8.8,0,0,0,3.2-6.6V70H113.68v.92A8.79,8.79,0,0,0,116.87,77.5Z"/><path d="M140.24,70v-.91a8.82,8.82,0,0,0-3.2-6.61,10.94,10.94,0,0,0-7.25-2.6h-5.66a11,11,0,0,0-7.26,2.6,8.79,8.79,0,0,0-3.19,6.61V70h26.56Z"/><path class="cls-4" d="M109,29.58a5,5,0,1,0,5,5.05A5,5,0,0,0,109,29.58Z"/><path class="cls-4" d="M145.12,29.58a5,5,0,1,0,5,5.05A5,5,0,0,0,145.12,29.58Z"/><path d="M109,43.13a8.5,8.5,0,1,1,8.5-8.5A8.51,8.51,0,0,1,109,43.13Z"/><path class="cls-1" d="M109,29.58a5,5,0,1,1-5,5.05,5,5,0,0,1,5-5.05m0-6.89a11.94,11.94,0,1,0,11.94,11.94A12,12,0,0,0,109,22.69Z"/><path d="M145.12,43.13a8.5,8.5,0,1,1,8.49-8.5A8.51,8.51,0,0,1,145.12,43.13Z"/><path class="cls-1" d="M145.12,29.58a5,5,0,1,1-5.05,5.05,5.06,5.06,0,0,1,5.05-5.05m0-6.89a11.94,11.94,0,1,0,11.94,11.94,12,12,0,0,0-11.94-11.94Z"/><path class="cls-5" d="M127,110.11c-7.22,0-12.88-4.27-12.88-9.72V84.11h25.75v16.28C139.83,105.84,134.17,110.11,127,110.11Z"/><path class="cls-1" d="M137,87v13.42c0,3.79-4.49,6.87-10,6.87s-10-3.08-10-6.87V87h20m5.7-5.71H111.23v19.13c0,7,6.91,12.57,15.73,12.57s15.72-5.52,15.72-12.57V81.26Z"/><path class="cls-6" d="M196,59.55l.21,1a28.93,28.93,0,0,0,6.92-11.86c1.61-5.27,2.35-13.08-3.23-20.35-8.55-11.13-30.62-13-41.77-13.24l2,3a53.29,53.29,0,0,1,10.39,5.12A57.16,57.16,0,0,1,196,59.55Z"/><path class="cls-7" d="M194.66,61.68a5.21,5.21,0,0,0,1.58-1.15l-.21-1a57.16,57.16,0,0,0-25.44-36.34,53.29,53.29,0,0,0-10.39-5.12c6.62,9.72,17,25,21.11,31.35C187.09,58.35,191.46,62.36,194.66,61.68Z"/><path class="cls-6" d="M57.25,59.55l-.2,1a28.93,28.93,0,0,1-6.92-11.86c-1.61-5.27-2.35-13.08,3.23-20.35C61.91,17.19,84,15.3,95.13,15.08l-2,3A53.29,53.29,0,0,0,82.7,23.21,57.17,57.17,0,0,0,57.25,59.55Z"/><path class="cls-7" d="M58.63,61.68a5.21,5.21,0,0,1-1.58-1.15l.2-1A57.17,57.17,0,0,1,82.7,23.21a53.29,53.29,0,0,1,10.39-5.12c-6.62,9.72-17,25-21.11,31.35C66.2,58.35,61.83,62.36,58.63,61.68Z"/></svg>