<svg id="Layer_1" data-name="Layer 1" xmlns="http://www.w3.org/2000/svg" viewBox="0 0 254.5 221.28"><defs><style>.cls-1,.cls-6{fill:#544741;}.cls-1{stroke:#fff;stroke-miterlimit:10;stroke-width:5.61px;}.cls-2{fill:none;}.cls-3{fill:#fff;}.cls-4{fill:#efb2c5;}.cls-5{fill:#988575;}.cls-7{fill:#924a3b;}</style></defs><path class="cls-1" d="M174.41,75.16,166,51.78A30,30,0,0,0,137.81,32H115.48A30,30,0,0,0,87.32,51.78L78.87,75.16a24.6,24.6,0,0,0,8.6,28.21h0a7.91,7.91,0,0,1,2.41,3.08,22.48,22.48,0,0,0,20.35,13h32.83a22.45,22.45,0,0,0,20.34-13,7.94,7.94,0,0,1,2.42-3.08h0A24.61,24.61,0,0,0,174.41,75.16ZM145.85,93.4a14.32,14.32,0,0,1-5.1,10.82,16.53,16.53,0,0,1-11,4h-5.66a16.51,16.51,0,0,1-11-4,14.33,14.33,0,0,1-5.11-10.82V91.7a14.33,14.33,0,0,1,5.11-10.82,16.56,16.56,0,0,1,11-4h5.66a16.58,16.58,0,0,1,11,4,14.34,14.34,0,0,1,5.1,10.82v1.7Z"/><path d="M116.87,100.14a10.94,10.94,0,0,0,7.26,2.6h5.66a10.89,10.89,0,0,0,7.25-2.6,8.8,8.8,0,0,0,3.2-6.6v-.92H113.68v.92A8.79,8.79,0,0,0,116.87,100.14Z"/><path d="M140.24,92.62V91.7a8.82,8.82,0,0,0-3.2-6.6,10.89,10.89,0,0,0-7.25-2.6h-5.66a10.94,10.94,0,0,0-7.26,2.6,8.79,8.79,0,0,0-3.19,6.6v.92h26.56Z"/><path class="cls-2" d="M109,52.22a5,5,0,1,0,5,5.05A5,5,0,0,0,109,52.22Z"/><path class="cls-2" d="M145.12,52.22a5,5,0,1,0,5,5.05A5,5,0,0,0,145.12,52.22Z"/><path d="M109,65.77a8.5,8.5,0,1,1,8.5-8.5A8.51,8.51,0,0,1,109,65.77Z"/><path class="cls-3" d="M109,52.22a5,5,0,1,1-5,5.05,5,5,0,0,1,5-5.05m0-6.89a11.94,11.94,0,1,0,11.94,11.94A11.95,11.95,0,0,0,109,45.33Z"/><path d="M145.12,65.77a8.5,8.5,0,1,1,8.49-8.5A8.51,8.51,0,0,1,145.12,65.77Z"/><path class="cls-3" d="M145.12,52.22a5,5,0,1,1-5.05,5.05,5.06,5.06,0,0,1,5.05-5.05m0-6.89a11.94,11.94,0,1,0,11.94,11.94,12,12,0,0,0-11.94-11.94Z"/><path class="cls-4" d="M127,132.75c-7.22,0-12.88-4.27-12.88-9.72V106.75h25.75V123C139.83,128.48,134.17,132.75,127,132.75Z"/><path class="cls-3" d="M137,109.6V123c0,3.79-4.48,6.87-10,6.87s-10-3.08-10-6.87V109.6h20m5.71-5.7H111.23V123c0,7.05,6.91,12.57,15.73,12.57s15.72-5.52,15.72-12.57V103.9Z"/><path class="cls-5" d="M188.83,89.09v1a28.77,28.77,0,0,0,9.23-10.16c2.67-4.82,5-12.3,1.07-20.57-6-12.67-27.24-19.11-38.11-21.64l1.38,3.36a53.66,53.66,0,0,1,9.09,7.17A57.17,57.17,0,0,1,188.83,89.09Z"/><path class="cls-6" d="M187,90.89a5.39,5.39,0,0,0,1.79-.8v-1a57.17,57.17,0,0,0-17.34-40.84,53.66,53.66,0,0,0-9.09-7.17c4.45,10.89,11.4,28,14.13,35.06C180.33,86.06,183.77,90.89,187,90.89Z"/><path class="cls-5" d="M64.75,89.09v1a28.76,28.76,0,0,1-9.22-10.16c-2.67-4.82-5-12.3-1.08-20.57,6-12.67,27.25-19.11,38.11-21.64l-1.38,3.36a53.66,53.66,0,0,0-9.09,7.17A57.21,57.21,0,0,0,64.75,89.09Z"/><path class="cls-6" d="M66.54,90.89a5.48,5.48,0,0,1-1.79-.8v-1A57.21,57.21,0,0,1,82.09,48.25a53.66,53.66,0,0,1,9.09-7.17C86.73,52,79.78,69,77.06,76.14,73.25,86.06,69.81,90.89,66.54,90.89Z"/><path class="cls-7" d="M218.06,107.48H210.8v10.89H218a25.55,25.55,0,0,1,0,51.09h-9.49l-.21.87a75.93,75.93,0,0,1-3.41,10h13.16a36.44,36.44,0,0,0,0-72.88Z"/><path class="cls-7" d="M45.38,151a69.4,69.4,0,0,0,69.32,69.32h19.89A69.39,69.39,0,0,0,198,179a67.46,67.46,0,0,0,3.63-10.37A69.7,69.7,0,0,0,203.9,151V99.13H45.38Z"/><rect class="cls-3" x="45.38" y="92.51" width="158.52" height="6.62"/></svg>