<svg id="Layer_1" data-name="Layer 1" xmlns="http://www.w3.org/2000/svg" viewBox="0 0 254.5 221.28"><defs><style>.cls-1{fill:#8ba29b;}.cls-2{fill:#748680;}.cls-3{fill:#fff;}.cls-4{fill:#adadad;}</style></defs><path class="cls-1" d="M59,152a18.77,18.77,0,1,0,18.78,18.77A18.77,18.77,0,0,0,59,152Zm0,31.48a12.71,12.71,0,1,1,12.72-12.71A12.71,12.71,0,0,1,59,183.43Z"/><path class="cls-2" d="M195.52,122.06a18.78,18.78,0,1,0,18.78,18.77A18.77,18.77,0,0,0,195.52,122.06Zm0,31.49a12.72,12.72,0,1,1,12.72-12.72A12.72,12.72,0,0,1,195.52,153.55Z"/><path class="cls-2" d="M193.08,117.51H104.23a56,56,0,0,1,9.5,36.44,40,40,0,0,0,1,14c.05.18.11.37.16.56,9.72,33.5,57.79,33.5,67.51,0l.15-.56a39.72,39.72,0,0,0,1-14,55.92,55.92,0,0,1,9.51-36.44Z"/><path class="cls-3" d="M193.08,117.51A55.92,55.92,0,0,0,183.57,154a39.72,39.72,0,0,1-1,14l-.15.56c-4.86,16.75-19.31,25.12-33.76,25.12s-28.89-8.37-33.75-25.12c-.05-.19-.11-.38-.16-.56a40,40,0,0,1-1-14,56,56,0,0,0-9.5-36.44h88.85m11.46-6.06H92.77l6.45,9.47a49.85,49.85,0,0,1,8.48,32.5,45,45,0,0,0,1.2,16.13l.18.65c5.2,17.92,20.73,29.5,39.57,29.5s34.38-11.58,39.58-29.5l.18-.65a45.48,45.48,0,0,0,1.2-16.13,49.85,49.85,0,0,1,8.48-32.5l6.45-9.47Z"/><path class="cls-1" d="M146.36,144.18H57.51A56,56,0,0,1,67,180.63a39.9,39.9,0,0,0,1,14c0,.19.11.38.16.56,9.72,33.5,57.79,33.5,67.5,0,.06-.18.11-.37.16-.56a39.66,39.66,0,0,0,1-14,55.93,55.93,0,0,1,9.51-36.45Z"/><path class="cls-3" d="M146.36,144.18a55.93,55.93,0,0,0-9.51,36.45,39.66,39.66,0,0,1-1,14c-.05.19-.1.38-.16.56-4.86,16.75-19.3,25.13-33.75,25.13S73,211.93,68.18,195.18c-.05-.18-.11-.37-.16-.56a39.9,39.9,0,0,1-1-14,56,56,0,0,0-9.5-36.45h88.85m11.46-6.06H46.05l6.45,9.47A49.85,49.85,0,0,1,61,180.1a45,45,0,0,0,1.2,16.12l.18.65c5.2,17.92,20.73,29.5,39.57,29.5s34.38-11.58,39.57-29.5c.07-.21.13-.43.19-.65a45.43,45.43,0,0,0,1.2-16.12,49.85,49.85,0,0,1,8.48-32.51l6.45-9.47Z"/><path class="cls-4" d="M123.26,43.53c-13.1-15.61-29-21.44-38.24-16.3-5.69,3.17-9,10.66-9.18,17.58-.51,23.57,36.08,35.87,32.27,52.3-1.24,5.32-5.25,4.86-10.89,15.1A58.38,58.38,0,0,0,90.38,135a45.4,45.4,0,0,1,2.39-23.55c3.28-8.18,6.48-8.32,7.26-12.58,3.08-16.83-44.5-28.24-45.31-52C54.38,37,62,26.17,70.33,20.69a34.53,34.53,0,0,1,13.06-5.07,36.14,36.14,0,0,1,18.8,2.12C118.14,24.28,122.75,41.49,123.26,43.53Z"/><path class="cls-4" d="M126.06,36.5c4.1-9.91,14.11-24.62,23.43-23.38,7.67,1,16.14,7.67,17.64,16.19C170.8,50.19,132.34,75.11,133,92.5a34.45,34.45,0,0,0,1.76,9.12c1.91,4.61,5.07,7.31,7.85,11.88.13-8-4.22-15.68-1.39-23,5.59-14.44,31.82-23,41-47,1.09-2.85,5.32-14.38.2-25.55S163.74-2.27,149.31.5a30,30,0,0,0-21.92,18.24A30.54,30.54,0,0,0,126.06,36.5Z"/></svg>