<svg xmlns="http://www.w3.org/2000/svg" viewBox="0 0 188.24 173.71"><defs><style>.cls-1{isolation:isolate;}.cls-2{mix-blend-mode:difference;}.cls-3{fill:#fff;}</style></defs><g class="cls-1"><g id="Layer_1" data-name="Layer 1"><g class="cls-2"><path class="cls-3" d="M94.12,28.82a30.61,30.61,0,1,0,30.61,30.61A30.61,30.61,0,0,0,94.12,28.82Zm-13,17.91c.1-.14,2.28-3.28,5.34-3.28,4.16,0,7.54,5,7.54,11.19,0-6.18,3.38-11.19,7.54-11.19,3.06,0,5.24,3.14,5.34,3.28,2.15,3.24,1,7.25-.39,9.47s-3.27,2.81-5,3.9C98.6,62,95.37,64,94,72.83,92.55,64,89.32,62,86.42,60.1c-1.68-1.09-3.52-1.68-5-3.9S78.93,50,81.08,46.73Zm13,39.74a26.67,26.67,0,0,1-26-32.57.43.43,0,0,0,0-.11,4.94,4.94,0,0,1,4.81-3.85,5.65,5.65,0,0,1,.59,0,4.92,4.92,0,0,1,1.22,9.46,5.6,5.6,0,0,0-2.87,5.38,22.84,22.84,0,0,0,21,17.75A8.76,8.76,0,0,0,91,80.47c-1-.82-1.78-1.07-4.18-2.06-3.76-1.57-5.64-2.35-6.35-2.94-.26-.22-4.12-3.5-3.23-7.8a6.79,6.79,0,0,1,3.89-4.91C85,61.34,89.91,64.89,92,70.69c.64,1.78,1.29,3.55,1.93,5.33l1.94-5.33c2.11-5.8,7-9.35,10.91-7.93a6.73,6.73,0,0,1,3.89,4.91c.91,4.44-3.25,7.8-3.49,8-1.16.91-2.8,1.53-6.09,2.76A16.8,16.8,0,0,0,97.37,80,8.2,8.2,0,0,0,95,82.58a22.81,22.81,0,0,0,21.37-17.69,5.54,5.54,0,0,0-3-5.51h0a4.92,4.92,0,0,1,1.37-9.4,5.66,5.66,0,0,1,.6,0A4.91,4.91,0,0,1,120,53.4a4.58,4.58,0,0,1,.15.64,26.67,26.67,0,0,1-26,32.43Z"/><path class="cls-3" d="M54.18,40H4.08v44.9H57.8A44.47,44.47,0,0,1,54.18,40Z"/><path class="cls-3" d="M61.38,89.39H4.08v7.18a3.67,3.67,0,0,0,3.67,3.67h68.9A44.46,44.46,0,0,1,61.38,89.39Z"/><path class="cls-3" d="M80.38,101H7.75a4.44,4.44,0,0,1-4.43-4.43V88.63h58.4l.23.25A43.91,43.91,0,0,0,77,99.54ZM4.85,90.16v6.41a2.9,2.9,0,0,0,2.9,2.9H73.26a45.28,45.28,0,0,1-12.21-9.31Z"/><path class="cls-3" d="M111.58,100.24h68.9a3.67,3.67,0,0,0,3.68-3.67V89.39H126.85A44.36,44.36,0,0,1,111.58,100.24Z"/><path class="cls-3" d="M180.48,101H107.86l3.42-1.46a44,44,0,0,0,15-10.66l.23-.25h58.4v7.94A4.44,4.44,0,0,1,180.48,101ZM115,99.47h65.5a2.9,2.9,0,0,0,2.91-2.9V90.16h-56.2A45.6,45.6,0,0,1,115,99.47Z"/><path class="cls-3" d="M133.91,59.43A39.8,39.8,0,1,0,86.72,98.52v17.53a6.15,6.15,0,0,0,6.12,6.13h2a6.14,6.14,0,0,0,6.12-6.13V98.61A39.78,39.78,0,0,0,133.91,59.43ZM94.12,94.63a35.2,35.2,0,1,1,35.2-35.2A35.21,35.21,0,0,1,94.12,94.63Z"/><path class="cls-3" d="M94.88,122.94h-2A6.89,6.89,0,0,1,86,116.05V99.15a40.56,40.56,0,1,1,15.81.1v16.8A6.9,6.9,0,0,1,94.88,122.94ZM94.12,20.4a39,39,0,0,0-7.26,77.37l.63.12v18.16a5.36,5.36,0,0,0,5.35,5.36h2a5.36,5.36,0,0,0,5.36-5.36V98l.63-.11A39,39,0,0,0,94.12,20.4Zm0,75a36,36,0,1,1,36-36A36,36,0,0,1,94.12,95.39Zm0-70.39a34.43,34.43,0,1,0,34.44,34.43A34.47,34.47,0,0,0,94.12,25Z"/><polygon class="cls-3" points="110.44 0.77 77.79 0.77 70.14 14.03 118.09 14.03 110.44 0.77"/><path class="cls-3" d="M119.42,14.79H68.82L77.35,0h33.53ZM71.47,13.26h45.3L110,1.53H78.24Z"/><circle class="cls-3" cx="161.55" cy="37.78" r="7.05"/><path class="cls-3" d="M161.55,45.6a7.82,7.82,0,1,1,7.81-7.82A7.83,7.83,0,0,1,161.55,45.6Zm0-14.1a6.29,6.29,0,1,0,6.28,6.28A6.28,6.28,0,0,0,161.55,31.5Z"/><path class="cls-3" d="M161.51,49.42A11.68,11.68,0,0,1,150.06,40h-16a44.43,44.43,0,0,1-3.61,44.9h53.72V40H173A11.68,11.68,0,0,1,161.51,49.42Z"/><path class="cls-3" d="M180.48,18.62h-68.9a44.49,44.49,0,0,1,19.89,16.83h18.59a11.68,11.68,0,0,1,22.9,0h11.2V22.29A3.67,3.67,0,0,0,180.48,18.62Z"/><path class="cls-3" d="M184.92,36.22H172.33l-.12-.62a10.91,10.91,0,0,0-21.4,0l-.12.62H131.05l-.22-.35a43.63,43.63,0,0,0-19.55-16.55l-3.42-1.47h72.62a4.45,4.45,0,0,1,4.44,4.44Zm-11.35-1.53h9.82V22.29a2.91,2.91,0,0,0-2.91-2.91H115a45.2,45.2,0,0,1,16.9,15.31h17.56a12.44,12.44,0,0,1,24.12,0Z"/><path class="cls-3" d="M4.08,22.29V35.45H56.77A44.52,44.52,0,0,1,76.65,18.62H7.75A3.67,3.67,0,0,0,4.08,22.29Zm32.36,8.57H18.78V23.21H36.44Z"/><path class="cls-3" d="M57.18,36.22H3.32V22.29a4.45,4.45,0,0,1,4.43-4.44H80.38L77,19.32A43.55,43.55,0,0,0,57.41,35.87ZM4.85,34.69h51.5a45.13,45.13,0,0,1,16.9-15.31H7.75a2.91,2.91,0,0,0-2.9,2.91Zm32.36-3.06H18V22.45h19.2ZM19.54,30.1H35.68V24H19.54Z"/><path class="cls-3" d="M13.45,137.87v-4.44c0-.85-.22-1.05-.94-1.05H12c-.35,0-.42-.07-.42-.36v-.94c0-.36.11-.42.42-.42h5.43c.31,0,.4.06.4.42V132c0,.29-.07.36-.4.36h-.54c-.72,0-.92.13-.92,1.05v10.62c0,.92.25,1,1,1h.5c.35,0,.42.07.42.34v1c0,.3-.09.41-.42.41H12c-.31,0-.4-.09-.4-.41v-1c0-.25.07-.34.4-.34h.5c.71,0,1-.2,1-1v-4.46H6.22v4.46c0,.92.24,1,1,1h.49c.38,0,.43.07.43.34v1c0,.3-.09.41-.43.41H2.25c-.31,0-.4-.09-.4-.41v-1c0-.25.06-.34.4-.34h.49c.72,0,1-.2,1-1V133.43c0-.85-.23-1.05-.94-1.05H2.25c-.36,0-.42-.07-.42-.36v-.94c0-.36.11-.42.42-.42H7.67c.31,0,.4.06.4.42V132c0,.29-.06.36-.4.36H7.13c-.71,0-.91.13-.91,1.05v4.44Z"/><path class="cls-3" d="M28.46,130.41c6,0,8.07,4.1,8.07,8.31,0,3.81-1.77,8.4-8,8.4-6,0-8.06-4.1-8.06-8.31C20.42,135,22.21,130.41,28.46,130.41ZM23,138.76c0,2.78,1.08,6.52,5.47,6.52s5.4-3.65,5.4-6.49-1-6.54-5.47-6.54C24.23,132.25,23,135.78,23,138.76Z"/><path class="cls-3" d="M49.19,144.88l4.88-13.82c.13-.32.25-.4.72-.4h3.58c.31,0,.4.06.4.4v.83a.39.39,0,0,1-.4.45l-.74,0c-.31,0-.74.06-.74.89v10.89c0,.81.11,1,.76,1h.77c.35,0,.47.12.47.41v.91c0,.34-.14.41-.47.41H53.06c-.31,0-.42-.07-.42-.41v-.91c0-.29.06-.41.42-.41h.65c.65,0,.9-.18.9-1V135l-4.1,11.6c-.11.29-.18.34-.58.34H47.82c-.34,0-.43,0-.54-.32l-4.34-12v9.63c0,.78.18.87.91.87h.66c.33,0,.4.05.4.34v1c0,.34-.11.41-.4.41H39.42c-.29,0-.4-.07-.4-.38v-1c0-.29.06-.34.4-.34h.63c.76,0,.94-.11.94-.87V133.28c-.05-.88-.38-.92-1-.94h-.33c-.36,0-.43-.16-.43-.39v-.89c0-.34.09-.4.43-.4h4c.35,0,.49.22.58.51Z"/><path class="cls-3" d="M62.9,132.4h-.81c-.29,0-.38-.11-.38-.4v-.94c0-.34.09-.4.45-.4H72.49c.82,0,1,0,1,1.05l.15,2.57c0,.43,0,.54-.4.54h-1c-.34,0-.45-.07-.5-.49l-.09-.92c-.11-1-.6-1-2.44-1H66.1V138h2.13a.6.6,0,0,0,.69-.62l.07-.74c.05-.36.11-.41.45-.41h.87c.34,0,.36.12.36.43v4.41c0,.29,0,.43-.33.43h-.9c-.31,0-.4-.09-.45-.41l-.07-.74a.63.63,0,0,0-.69-.65H66.1v5.43h4.1c1.48,0,1.68-.12,2-1.26l.16-1.37c.06-.29.18-.4.51-.4h1c.33,0,.4.14.35.45l-.33,3.54c-.07.69-.25.74-.79.74H62.14c-.29,0-.43-.07-.43-.41v-.87c0-.33.14-.45.38-.45,1.23,0,1.5-.15,1.5-1V133.34C63.59,132.69,63.41,132.47,62.9,132.4Z"/><path class="cls-3" d="M84.32,132.4h-.81c-.29,0-.38-.11-.38-.4v-.94c0-.34.09-.4.45-.4h5.8c3.85,0,6,1,6,3.89a3.38,3.38,0,0,1-3.06,3.63v0c2.33.18,4,1.62,4,4,0,4-3,4.62-6.56,4.62h-6.2c-.3,0-.43-.07-.43-.41v-.87c0-.33.13-.45.38-.45,1.23,0,1.5-.15,1.5-1V133.34C85,132.69,84.83,132.47,84.32,132.4Zm3.2,4.91h2.2c2.12,0,3-.79,3-2.6s-1.32-2.31-3.09-2.31H87.52Zm0,7.77h2.53c1.66,0,3.59-.36,3.59-2.84s-1.51-3.07-4-3.07H87.52Z"/><path class="cls-3" d="M103.61,140.29v3.76c0,.92.27,1,1,1h.63c.38,0,.43.07.43.34v1c0,.3-.07.41-.43.41H99.51c-.34,0-.43-.09-.43-.41v-1c0-.25.07-.34.43-.34h.6c.74,0,1-.2,1-1V133.34c0-.65-.18-.89-.72-.94h-.85c-.29,0-.49,0-.49-.4v-.94c0-.34.09-.4.47-.4h5.65c4.36,0,6.76,1.27,6.76,4.72a4.36,4.36,0,0,1-3.43,4.62c1.12.58,1.75,1.81,3,4.39.34.69.56.85,1.16.85a3.35,3.35,0,0,0,.79-.11c.18,0,.31,0,.31.2v1c0,.25,0,.41-.4.56a4.28,4.28,0,0,1-1.46.2,2.74,2.74,0,0,1-2.77-1.9c-.79-1.66-1.71-4.88-4.22-4.88Zm1.9-1.59c2.55,0,3.81-1.08,3.81-3.25s-1.32-3.09-4-3.09h-1.74v6.34Z"/><path class="cls-3" d="M117.21,132.4h-.81c-.29,0-.38-.11-.38-.4v-.94c0-.34.09-.4.45-.4h10.32c.83,0,1,0,1,1.05l.16,2.57c0,.43,0,.54-.4.54h-1c-.33,0-.44-.07-.49-.49l-.09-.92c-.11-1-.6-1-2.44-1h-3.18V138h2.13a.6.6,0,0,0,.69-.62l.07-.74c0-.36.11-.41.45-.41h.87c.34,0,.36.12.36.43v4.41c0,.29,0,.43-.34.43h-.89c-.32,0-.41-.09-.45-.41l-.07-.74a.64.64,0,0,0-.69-.65h-2.13v5.43h4.1c1.48,0,1.68-.12,1.95-1.26l.15-1.37c.07-.29.18-.4.52-.4h1c.34,0,.41.14.36.45l-.33,3.54c-.07.69-.25.74-.79.74H116.44c-.29,0-.42-.07-.42-.41v-.87c0-.33.13-.45.38-.45,1.23,0,1.5-.15,1.5-1V133.34C117.9,132.69,117.72,132.47,117.21,132.4Z"/><path class="cls-3" d="M137.5,144.36l3.05-13.17c.11-.47.13-.53.45-.53h1.92c.32,0,.32.11.45.56l3.32,12.52,2.55-10.28a2.77,2.77,0,0,0,.11-.63c0-.41-.29-.45-1.21-.45-.29,0-.4-.13-.4-.4V131c0-.34,0-.38.49-.38h4.46c.29,0,.36.06.36.4V132c0,.23,0,.43-.36.43-1.14,0-1.25,0-1.55,1.23l-3.38,12.84c-.13.49-.2.56-.65.56h-1.7c-.4,0-.47-.23-.56-.56l-3.11-12.1L139,146.45c-.11.49-.22.56-.56.56h-2.26c-.29,0-.45-.09-.56-.54l-3.54-12.88c-.31-1.14-.45-1.21-1.39-1.21-.51,0-.58-.11-.58-.56V131c0-.32.07-.38.38-.38h5.38c.31,0,.38.08.38.38v1c0,.25-.07.38-.34.38-1,0-1.3,0-1.3.45a4.1,4.1,0,0,0,.11.67Z"/><path class="cls-3" d="M156.28,132.4h-.81c-.29,0-.38-.11-.38-.4v-.94c0-.34.09-.4.45-.4h10.33c.82,0,1,0,1,1.05l.15,2.57c0,.43,0,.54-.4.54h-1c-.34,0-.45-.07-.5-.49l-.09-.92c-.11-1-.6-1-2.44-1h-3.18V138h2.13a.6.6,0,0,0,.69-.62l.07-.74c0-.36.11-.41.45-.41h.87c.34,0,.36.12.36.43v4.41c0,.29,0,.43-.33.43h-.9c-.31,0-.4-.09-.45-.41l-.07-.74a.63.63,0,0,0-.69-.65h-2.13v5.43h4.1c1.48,0,1.68-.12,1.95-1.26l.16-1.37c.06-.29.18-.4.51-.4h1c.33,0,.4.14.35.45l-.33,3.54c-.07.69-.25.74-.79.74H155.52c-.29,0-.43-.07-.43-.41v-.87c0-.33.14-.45.38-.45,1.23,0,1.5-.15,1.5-1V133.34C157,132.69,156.79,132.47,156.28,132.4Z"/><path class="cls-3" d="M172.21,133.34c0-.74-.2-.94-1.5-.94-.29,0-.38-.11-.38-.4v-.94c0-.34.09-.4.44-.4h5.56c6.11,0,9,2.71,9,8.1s-3.16,8.07-9,8.07h-5.56c-.29,0-.42-.07-.42-.41v-.87c0-.33.13-.45.38-.45,1.23,0,1.5-.15,1.5-1ZM176.28,145c4.42,0,6.41-1.82,6.41-6.21,0-4.59-2.15-6.31-6.52-6.31h-1.45V145Z"/><path class="cls-3" d="M5.49,167.62v3.31c0,.92.27,1.06,1,1.06H7c.35,0,.4.06.4.33v1c0,.29-.07.4-.4.4H1.55c-.32,0-.43-.09-.43-.4v-1c0-.24.07-.33.43-.33H2c.69,0,1-.2,1-1.06v-10.7c0-.65-.18-.88-.69-.94H1.5c-.29,0-.38-.11-.38-.41v-.94c0-.33.09-.4.45-.4H6.85c4.71,0,7.17,1.21,7.17,5,0,3.45-2.37,5.11-5.91,5.11Zm1.79-1.7c2.8,0,4.12-1.17,4.12-3.41s-1.41-3.27-4.28-3.27H5.49v6.68Z"/><path class="cls-3" d="M28.29,164.75v-4.43c0-.85-.22-1.06-.94-1.06h-.51c-.36,0-.43-.06-.43-.35V158c0-.36.11-.43.43-.43h5.42c.31,0,.4.07.4.43v.94c0,.29-.07.35-.4.35h-.54c-.72,0-.92.14-.92,1.06v10.61c0,.92.25,1.06,1,1.06h.5c.36,0,.42.06.42.33v1c0,.29-.09.4-.42.4H26.84c-.32,0-.41-.09-.41-.4v-1c0-.24.07-.33.41-.33h.49c.72,0,1-.2,1-1.06v-4.45H21.06v4.45c0,.92.25,1.06,1,1.06h.49c.38,0,.43.06.43.33v1c0,.29-.09.4-.43.4H17.09c-.31,0-.4-.09-.4-.4v-1c0-.24.07-.33.4-.33h.5c.71,0,1-.2,1-1.06V160.32c0-.85-.22-1.06-.94-1.06h-.52c-.36,0-.42-.06-.42-.35V158c0-.36.11-.43.42-.43h5.42c.32,0,.41.07.41.43v.94c0,.29-.07.35-.41.35H22c-.72,0-.92.14-.92,1.06v4.43Z"/><path class="cls-3" d="M43.31,157.29c6,0,8.06,4.1,8.06,8.31,0,3.81-1.77,8.4-8,8.4-6,0-8.07-4.1-8.07-8.31C35.26,161.84,37.06,157.29,43.31,157.29Zm-5.43,8.36c0,2.78,1.08,6.52,5.47,6.52s5.4-3.65,5.4-6.5-1-6.54-5.47-6.54C39.07,159.13,37.88,162.67,37.88,165.65Z"/><path class="cls-3" d="M57.26,173.31v-1c0-.24.07-.33.41-.33h.49c.65,0,.92-.18,1-.88V159.38H57.49c-1.28,0-1.59,0-1.68.74l-.11,1.23c-.05.33-.14.38-.47.38h-1c-.38,0-.38-.09-.36-.43l.16-3c0-.72.15-.76.71-.76H66c.56,0,.69,0,.74.76l.16,3c0,.32,0,.43-.36.43h-1c-.34,0-.45-.07-.49-.38L65,160.12c-.09-.72-.43-.74-1.79-.74H61.63v11.55c0,.92.25,1.06,1,1.06h.51c.36,0,.4.06.4.33v1c0,.29-.09.4-.4.4H57.67C57.35,173.71,57.26,173.62,57.26,173.31Z"/><path class="cls-3" d="M77.43,157.29c6,0,8.06,4.1,8.06,8.31,0,3.81-1.77,8.4-8,8.4-6,0-8.06-4.1-8.06-8.31C69.39,161.84,71.18,157.29,77.43,157.29ZM72,165.65c0,2.78,1.07,6.52,5.46,6.52s5.4-3.65,5.4-6.5-1-6.54-5.47-6.54C73.19,159.13,72,162.67,72,165.65Z"/><path class="cls-3" d="M96.92,166.34c0-.29.09-.44.36-.44H102a.32.32,0,0,1,.36.35v7c0,.31-.11.49-.4.49h-.88c-.35,0-.49-.09-.58-.38l-.11-.33a8.68,8.68,0,0,1-4.12,1c-4.55,0-8-2.62-8-8.29,0-4.88,2.89-8.35,8.09-8.35,4.39,0,5.91,2.06,5.91,4a1.58,1.58,0,0,1-1.68,1.62,1.5,1.5,0,0,1-1.54-1.59,1.6,1.6,0,0,1,.78-1.42,5.79,5.79,0,0,0-3.29-.82c-3.9,0-5.65,3-5.65,6.58,0,3.83,2,6.25,5.54,6.25a6.91,6.91,0,0,0,3.58-.94v-2.82a.48.48,0,0,0-.54-.52H97.3c-.27,0-.38-.13-.38-.42Z"/><path class="cls-3" d="M110.07,167.17v3.76c0,.92.27,1.06,1,1.06h.62c.39,0,.43.06.43.33v1c0,.29-.07.4-.43.4H106c-.34,0-.43-.09-.43-.4v-1c0-.24.07-.33.43-.33h.61c.73,0,1-.2,1-1.06v-10.7c0-.65-.18-.9-.71-.94H106c-.29,0-.49,0-.49-.41v-.94c0-.33.09-.4.47-.4h5.65c4.37,0,6.76,1.28,6.76,4.73a4.34,4.34,0,0,1-3.43,4.61c1.13.58,1.75,1.82,3,4.39.34.7.56.85,1.17.85a2.88,2.88,0,0,0,.78-.11c.18,0,.31,0,.31.2v1c0,.24,0,.4-.4.56a4.48,4.48,0,0,1-1.45.2,2.75,2.75,0,0,1-2.78-1.91c-.79-1.65-1.71-4.88-4.21-4.88Zm1.9-1.59c2.56,0,3.81-1.07,3.81-3.25s-1.32-3.09-4-3.09h-1.75v6.34Z"/><path class="cls-3" d="M132.29,168.49h-5.91l-.87,2.65c-.23.65,0,.8.62.87h.41c.4,0,.47.16.47.45v.85c0,.34-.12.4-.47.4H122c-.29,0-.4-.06-.4-.4v-.87c0-.3.06-.43.4-.45l.65,0c.4,0,.58-.12.85-.88L128,157.88c.12-.27.16-.34.59-.34h2a.46.46,0,0,1,.52.31l4.52,12.93c.38,1.07.5,1.16,1.24,1.19l.4,0c.4,0,.49.11.49.4v.92c0,.34-.07.4-.47.4h-5.13c-.38,0-.47-.06-.47-.4v-.85c0-.29.07-.38.47-.43h.29c.56-.06.81-.13.81-.47a2.48,2.48,0,0,0-.18-.69Zm-5.35-1.68h4.77l-2.4-7.05Z"/><path class="cls-3" d="M144,167.62v3.31c0,.92.27,1.06,1,1.06h.49c.36,0,.4.06.4.33v1c0,.29-.06.4-.4.4h-5.42c-.31,0-.43-.09-.43-.4v-1c0-.24.07-.33.43-.33h.49c.7,0,1-.2,1-1.06v-10.7c0-.65-.17-.88-.69-.94H140c-.29,0-.38-.11-.38-.41v-.94c0-.33.09-.4.45-.4h5.29c4.7,0,7.17,1.21,7.17,5,0,3.45-2.38,5.11-5.92,5.11Zm1.79-1.7c2.8,0,4.13-1.17,4.13-3.41s-1.42-3.27-4.28-3.27H144v6.68Z"/><path class="cls-3" d="M166.82,164.75v-4.43c0-.85-.23-1.06-.94-1.06h-.52c-.36,0-.42-.06-.42-.35V158c0-.36.11-.43.42-.43h5.42c.32,0,.41.07.41.43v.94c0,.29-.07.35-.41.35h-.53c-.72,0-.92.14-.92,1.06v10.61c0,.92.24,1.06,1,1.06h.49c.36,0,.43.06.43.33v1c0,.29-.09.4-.43.4h-5.42c-.31,0-.4-.09-.4-.4v-1c0-.24.07-.33.4-.33h.49c.72,0,1-.2,1-1.06v-4.45h-7.24v4.45c0,.92.25,1.06,1,1.06H161c.38,0,.42.06.42.33v1c0,.29-.09.4-.42.4h-5.42c-.32,0-.41-.09-.41-.4v-1c0-.24.07-.33.41-.33h.49c.72,0,1-.2,1-1.06V160.32c0-.85-.22-1.06-.94-1.06h-.51c-.36,0-.43-.06-.43-.35V158c0-.36.11-.43.43-.43H161c.31,0,.4.07.4.43v.94c0,.29-.07.35-.4.35h-.54c-.72,0-.92.14-.92,1.06v4.43Z"/><path class="cls-3" d="M179.16,170.93V167.1l-3.8-6.72c-.54-.89-.79-1.09-1.33-1.09h-.44c-.34,0-.43-.18-.43-.47v-.88c0-.33.09-.4.4-.4h5c.31,0,.43.07.43.4v.83c0,.29-.09.47-.43.47h-.4c-.54,0-.61.14-.32.7l2.8,5.31,3.05-5.34c.31-.53.07-.65-.29-.65H183c-.35,0-.42-.2-.42-.49v-.83c0-.33.09-.4.42-.4h4.35c.31,0,.38.09.38.4v.88c0,.29-.07.44-.4.44h-.52c-.36,0-.49.07-.94.83L181.67,167v4.13c0,.74.29.85,1,.85h.51c.36,0,.4.06.4.33v1c0,.29-.09.4-.4.4h-5.44c-.32,0-.4-.09-.4-.4v-1c0-.24.06-.33.4-.33h.49C178.92,172,179.16,171.79,179.16,170.93Z"/></g></g></g></svg>